{
  "accessors": [
    {
      "bufferView": 2,
      "componentType": 5126,
      "count": 1434,
      "max": [
        8.500003814697266,
        0.0,
        5.699995040893555
      ],
      "min": [
        -8.500004768371582,
        -8.000003814697266,
        0.0
      ],
      "type": "VEC3"
    },
    {
      "bufferView": 2,
      "byteOffset": 17208,
      "componentType": 5126,
      "count": 1434,
      "max": [
        1.0,
        0.9955060482025146,
        1.0
      ],
      "min": [
        -1.0,
        -1.0,
        -1.0
      ],
      "type": "VEC3"
    },
    {
      "bufferView": 1,
      "componentType": 5126,
      "count": 1434,
      "max": [
        0.9995005130767822,
        0.9995003938674927
      ],
      "min": [
        0.0004994571208953857,
        0.0004995465278625488
      ],
      "type": "VEC2"
    },
    {
      "bufferView": 0,
      "componentType": 5125,
      "count": 8292,
      "type": "SCALAR"
    },
    {
      "bufferView": 2,
      "byteOffset": 34416,
      "componentType": 5126,
      "count": 154,
      "max": [
        0.5067809224128723,
        -0.2451440691947937,
        5.037186145782471
      ],
      "min": [
        -0.5068184733390808,
        -0.3016524314880371,
        4.858181953430176
      ],
      "type": "VEC3"
    },
    {
      "bufferView": 2,
      "byteOffset": 36264,
      "componentType": 5126,
      "count": 154,
      "max": [
        1.0,
        0.14354990422725677,
        0.9971036911010742
      ],
      "min": [
        -1.0,
        -0.998613715171814,
        -0.9877623915672302
      ],
      "type": "VEC3"
    },
    {
      "bufferView": 1,
      "byteOffset": 11472,
      "componentType": 5126,
      "count": 154,
      "max": [
        0.9995005130767822,
        0.9995003938674927
      ],
      "min": [
        0.0004995167255401611,
        0.0004996061325073242
      ],
      "type": "VEC2"
    },
    {
      "bufferView": 0,
      "byteOffset": 33168,
      "componentType": 5125,
      "count": 792,
      "type": "SCALAR"
    }
  ],
  "asset": {
    "extras": {
      "author": "tissinouk (https://sketchfab.com/tissinouk)",
      "license": "CC-BY-4.0 (http://creativecommons.org/licenses/by/4.0/)",
      "source": "https://sketchfab.com/3d-models/angelo-freestanding-bath-dcd691724f6b4d29a6d16def24d14e6e",
      "title": "Angelo Freestanding Bath"
    },
    "generator": "Sketchfab-12.65.0",
    "version": "2.0"
  },
  "bufferViews": [
    {
      "buffer": 0,
      "byteLength": 36336,
      "name": "floatBufferViews",
      "target": 34963
    },
    {
      "buffer": 0,
      "byteLength": 12704,
      "byteOffset": 36336,
      "byteStride": 8,
      "name": "floatBufferViews",
      "target": 34962
    },
    {
      "buffer": 0,
      "byteLength": 38112,
      "byteOffset": 49040,
      "byteStride": 12,
      "name": "floatBufferViews",
      "target": 34962
    }
  ],
  "buffers": [
    {
      "byteLength": 87152,
      "uri": "scene.bin"
    }
  ],
  "materials": [
    {
      "doubleSided": true,
      "name": "Chrome_Polished",
      "pbrMetallicRoughness": {
        "baseColorFactor": [
          0.462745,
          0.462745,
          0.462745,
          1.0
        ],
        "metallicFactor": 0.0,
        "roughnessFactor": 0.6
      }
    },
    {
      "doubleSided": true,
      "name": "Ceramic_Glossy",
      "pbrMetallicRoughness": {
        "baseColorFactor": [
          0.933333,
          0.933333,
          0.933333,
          1.0
        ],
        "metallicFactor": 0.0,
        "roughnessFactor": 0.6
      }
    }
  ],
  "meshes": [
    {
      "name": "Object_0",
      "primitives": [
        {
          "attributes": {
            "NORMAL": 1,
            "POSITION": 0,
            "TEXCOORD_0": 2
          },
          "indices": 3,
          "material": 1,
          "mode": 4
        }
      ]
    },
    {
      "name": "Object_1",
      "primitives": [
        {
          "attributes": {
            "NORMAL": 5,
            "POSITION": 4,
            "TEXCOORD_0": 6
          },
          "indices": 7,
          "material": 0,
          "mode": 4
        }
      ]
    }
  ],
  "nodes": [
    {
      "children": [
        1
      ],
      "matrix": [
        1.0,
        0.0,
        0.0,
        0.0,
        0.0,
        2.220446049250313e-16,
        -1.0,
        0.0,
        0.0,
        1.0,
        2.220446049250313e-16,
        0.0,
        0.0,
        0.0,
        0.0,
        1.0
      ],
      "name": "Sketchfab_model"
    },
    {
      "children": [
        2,
        5
      ],
      "name": "005dd7503ca14de8bf75db983a0801e8.3ds"
    },
    {
      "children": [
        3
      ],
      "matrix": [
        1.0,
        0.0,
        0.0,
        0.0,
        0.0,
        1.0,
        0.0,
        0.0,
        0.0,
        0.0,
        1.0,
        0.0,
        -8.702263585291803e-07,
        -4.397807598114014,
        2.9671213626861572,
        1.0
      ],
      "name": "Bath"
    },
    {
      "children": [
        4
      ],
      "matrix": [
        1.0,
        0.0,
        0.0,
        0.0,
        0.0,
        1.0,
        0.0,
        0.0,
        0.0,
        0.0,
        1.0,
        0.0,
        8.702263585291803e-07,
        4.397807598114014,
        -2.9671213626861572,
        1.0
      ],
      "name": "3DSMeshMatrix"
    },
    {
      "mesh": 0,
      "name": "Object_4"
    },
    {
      "children": [
        6
      ],
      "matrix": [
        1.0,
        0.0,
        0.0,
        0.0,
        0.0,
        1.0,
        0.0,
        0.0,
        0.0,
        0.0,
        1.0,
        0.0,
        -1.834631257224828e-05,
        -0.33614683151245117,
        4.953266620635986,
        1.0
      ],
      "name": "Overflow"
    },
    {
      "children": [
        7
      ],
      "matrix": [
        1.0,
        0.0,
        0.0,
        0.0,
        0.0,
        1.0,
        0.0,
        0.0,
        0.0,
        0.0,
        1.0,
        0.0,
        1.834631257224828e-05,
        0.33614683151245117,
        -4.953266620635986,
        1.0
      ],
      "name": "3DSMeshMatrix"
    },
    {
      "mesh": 1,
      "name": "Object_7"
    }
  ],
  "scene": 0,
  "scenes": [
    {
      "name": "Sketchfab_Scene",
      "nodes": [
        0
      ]
    }
  ]
}
