{
  "accessors": [
    {
      "bufferView": 2,
      "componentType": 5126,
      "count": 63805,
      "max": [
        94.14434814453125,
        104.23442077636719,
        137.65159606933594
      ],
      "min": [
        -94.15388488769531,
        -110.18067932128906,
        -25.0
      ],
      "type": "VEC3"
    },
    {
      "bufferView": 2,
      "byteOffset": 765660,
      "componentType": 5126,
      "count": 63805,
      "max": [
        1.0,
        1.0,
        1.0
      ],
      "min": [
        -1.0,
        -1.0,
        -1.0
      ],
      "type": "VEC3"
    },
    {
      "bufferView": 1,
      "componentType": 5126,
      "count": 63805,
      "max": [
        2.824863910675049,
        1.534074068069458
      ],
      "min": [
        -1.8256735801696777,
        -1.4499999284744263
      ],
      "type": "VEC2"
    },
    {
      "bufferView": 1,
      "byteOffset": 510440,
      "componentType": 5126,
      "count": 63805,
      "max": [
        0.35092902183532715,
        1.432746410369873
      ],
      "min": [
        -0.3986175060272217,
        -0.4859573245048523
      ],
      "type": "VEC2"
    },
    {
      "bufferView": 0,
      "componentType": 5125,
      "count": 198612,
      "type": "SCALAR"
    },
    {
      "bufferView": 2,
      "byteOffset": 1531320,
      "componentType": 5126,
      "count": 118,
      "max": [
        89.4613265991211,
        100.01936340332031,
        31.553985595703125
      ],
      "min": [
        -89.46114349365234,
        -100.01954650878906,
        11.231800079345703
      ],
      "type": "VEC3"
    },
    {
      "bufferView": 2,
      "byteOffset": 1532736,
      "componentType": 5126,
      "count": 118,
      "max": [
        0.9818339347839355,
        0.9818341135978699,
        0.9824506044387817
      ],
      "min": [
        -0.9818339347839355,
        -0.9818341135978699,
        -0.9759232997894287
      ],
      "type": "VEC3"
    },
    {
      "bufferView": 1,
      "byteOffset": 1020880,
      "componentType": 5126,
      "count": 118,
      "max": [
        2.781698226928711,
        1.4947783946990967
      ],
      "min": [
        -1.781698226928711,
        -1.203973412513733
      ],
      "type": "VEC2"
    },
    {
      "bufferView": 1,
      "byteOffset": 1021824,
      "componentType": 5126,
      "count": 118,
      "max": [
        -0.19405525922775269,
        1.395027756690979
      ],
      "min": [
        -0.2877059578895569,
        -0.3950299620628357
      ],
      "type": "VEC2"
    },
    {
      "bufferView": 0,
      "byteOffset": 794448,
      "componentType": 5125,
      "count": 324,
      "type": "SCALAR"
    }
  ],
  "asset": {
    "extras": {
      "author": "cebraVFX (https://sketchfab.com/intervirtual)",
      "license": "CC-BY-4.0 (http://creativecommons.org/licenses/by/4.0/)",
      "source": "https://sketchfab.com/3d-models/princess-bed-3ed408980a9b4f9396a7f7c48ec50aa4",
      "title": "Princess bed"
    },
    "generator": "Sketchfab-12.68.0",
    "version": "2.0"
  },
  "bufferViews": [
    {
      "buffer": 0,
      "byteLength": 795744,
      "name": "floatBufferViews",
      "target": 34963
    },
    {
      "buffer": 0,
      "byteLength": 1022768,
      "byteOffset": 795744,
      "byteStride": 8,
      "name": "floatBufferViews",
      "target": 34962
    },
    {
      "buffer": 0,
      "byteLength": 1534152,
      "byteOffset": 1818512,
      "byteStride": 12,
      "name": "floatBufferViews",
      "target": 34962
    }
  ],
  "buffers": [
    {
      "byteLength": 3352664,
      "uri": "scene.bin"
    }
  ],
  "materials": [
    {
      "doubleSided": true,
      "name": "MetallWeiss",
      "pbrMetallicRoughness": {
        "baseColorFactor": [
          0.952941,
          0.952941,
          0.952941,
          1.0
        ],
        "metallicFactor": 0.0,
        "roughnessFactor": 0.15415396341463414
      }
    },
    {
      "doubleSided": true,
      "name": "Matratze",
      "pbrMetallicRoughness": {
        "baseColorFactor": [
          0.8928293248917687,
          0.514868451819229,
          0.5670801375048574,
          1.0
        ],
        "metallicFactor": 0.0,
        "roughnessFactor": 0.4895198170731707
      }
    }
  ],
  "meshes": [
    {
      "name": "PrincessBed_001_MetallWeiss_0",
      "primitives": [
        {
          "attributes": {
            "NORMAL": 1,
            "POSITION": 0,
            "TEXCOORD_0": 2,
            "TEXCOORD_1": 3
          },
          "indices": 4,
          "material": 0,
          "mode": 4
        }
      ]
    },
    {
      "name": "PrincessBed_001_Matratze_0",
      "primitives": [
        {
          "attributes": {
            "NORMAL": 6,
            "POSITION": 5,
            "TEXCOORD_0": 7,
            "TEXCOORD_1": 8
          },
          "indices": 9,
          "material": 1,
          "mode": 4
        }
      ]
    }
  ],
  "nodes": [
    {
      "children": [
        1
      ],
      "matrix": [
        1.0,
        2.8327693431939995e-16,
        -2.8327693431939985e-16,
        0.0,
        2.832769343193999e-16,
        -6.123234262925839e-17,
        1.0,
        0.0,
        2.832769343193999e-16,
        -1.0,
        -6.123234262925839e-17,
        0.0,
        3.640664159032525e-14,
        -162.65145874023438,
        -5.946876525878943,
        1.0
      ],
      "name": "Sketchfab_model"
    },
    {
      "children": [
        2
      ],
      "matrix": [
        1.0,
        0.0,
        0.0,
        0.0,
        0.0,
        -1.0,
        0.0,
        0.0,
        0.0,
        0.0,
        -1.0,
        0.0,
        0.0,
        0.0,
        0.0,
        1.0
      ],
      "name": "0dd5392f313c481d998e1cb74f289e45.fbx"
    },
    {
      "children": [
        3
      ],
      "name": "RootNode"
    },
    {
      "children": [
        4
      ],
      "name": "PrincessBed_001"
    },
    {
      "children": [
        5,
        6
      ],
      "matrix": [
        1.0,
        0.0,
        -0.0,
        0.0,
        0.0,
        1.0,
        0.0,
        0.0,
        0.0,
        0.0,
        1.0,
        0.0,
        0.0,
        0.0,
        25.0,
        1.0
      ],
      "name": "Object_4"
    },
    {
      "mesh": 0,
      "name": "PrincessBed_001_MetallWeiss_0"
    },
    {
      "mesh": 1,
      "name": "PrincessBed_001_Matratze_0"
    }
  ],
  "scene": 0,
  "scenes": [
    {
      "name": "Sketchfab_Scene",
      "nodes": [
        0
      ]
    }
  ]
}
