{
  "accessors": [
    {
      "bufferView": 2,
      "componentType": 5126,
      "count": 1978,
      "max": [
        46.673362731933594,
        73.35917663574219,
        44.92906951904297
      ],
      "min": [
        -32.441383361816406,
        -120.46595764160156,
        -3.9928715229034424
      ],
      "type": "VEC3"
    },
    {
      "bufferView": 2,
      "byteOffset": 23736,
      "componentType": 5126,
      "count": 1978,
      "max": [
        1.0,
        0.9996931552886963,
        0.9998856782913208
      ],
      "min": [
        -1.0,
        -0.9991923570632935,
        -0.9998810887336731
      ],
      "type": "VEC3"
    },
    {
      "bufferView": 3,
      "componentType": 5126,
      "count": 1978,
      "max": [
        1.0,
        1.0,
        1.0,
        1.0
      ],
      "min": [
        -1.0,
        -1.0,
        -1.0,
        -1.0
      ],
      "type": "VEC4"
    },
    {
      "bufferView": 1,
      "componentType": 5126,
      "count": 1978,
      "max": [
        0.9912697672843933,
        0.9948676228523254
      ],
      "min": [
        0.003457551822066307,
        0.0020921174436807632
      ],
      "type": "VEC2"
    },
    {
      "bufferView": 0,
      "componentType": 5125,
      "count": 8646,
      "type": "SCALAR"
    },
    {
      "bufferView": 2,
      "byteOffset": 47472,
      "componentType": 5126,
      "count": 710,
      "max": [
        37.364662170410156,
        4.717884063720703,
        9.268383979797363
      ],
      "min": [
        -4.354447364807129,
        -4.907310485839844,
        -9.447265625
      ],
      "type": "VEC3"
    },
    {
      "bufferView": 2,
      "byteOffset": 55992,
      "componentType": 5126,
      "count": 710,
      "max": [
        0.998252809047699,
        0.9844401478767395,
        0.9905750155448914
      ],
      "min": [
        -0.9982528686523438,
        -0.9974673390388489,
        -0.9905751347541809
      ],
      "type": "VEC3"
    },
    {
      "bufferView": 3,
      "byteOffset": 31648,
      "componentType": 5126,
      "count": 710,
      "max": [
        0.9999926090240479,
        0.9909350275993347,
        0.9974910020828247,
        1.0
      ],
      "min": [
        -0.9999926090240479,
        -0.9998733401298523,
        -0.7694587707519531,
        -1.0
      ],
      "type": "VEC4"
    },
    {
      "bufferView": 1,
      "byteOffset": 15824,
      "componentType": 5126,
      "count": 710,
      "max": [
        0.9976621866226196,
        0.9911666512489319
      ],
      "min": [
        0.3014642298221588,
        0.6657085418701172
      ],
      "type": "VEC2"
    },
    {
      "bufferView": 0,
      "byteOffset": 34584,
      "componentType": 5125,
      "count": 3396,
      "type": "SCALAR"
    },
    {
      "bufferView": 2,
      "byteOffset": 64512,
      "componentType": 5126,
      "count": 710,
      "max": [
        35.678314208984375,
        4.716457366943359,
        8.825233459472656
      ],
      "min": [
        -5.062351226806641,
        -4.716457366943359,
        -8.689453125
      ],
      "type": "VEC3"
    },
    {
      "bufferView": 2,
      "byteOffset": 73032,
      "componentType": 5126,
      "count": 710,
      "max": [
        0.9982841610908508,
        0.9995294809341431,
        0.9985262751579285
      ],
      "min": [
        -0.9982841610908508,
        -0.9981293082237244,
        -0.9985262155532837
      ],
      "type": "VEC3"
    },
    {
      "bufferView": 3,
      "byteOffset": 43008,
      "componentType": 5126,
      "count": 710,
      "max": [
        0.9999340176582336,
        0.9993712306022644,
        0.9729321002960205,
        1.0
      ],
      "min": [
        -0.9999339580535889,
        -0.9999522566795349,
        -0.6584062576293945,
        -1.0
      ],
      "type": "VEC4"
    },
    {
      "bufferView": 1,
      "byteOffset": 21504,
      "componentType": 5126,
      "count": 710,
      "max": [
        0.9976621866226196,
        0.9911666512489319
      ],
      "min": [
        0.3014642298221588,
        0.6657085418701172
      ],
      "type": "VEC2"
    },
    {
      "bufferView": 0,
      "byteOffset": 48168,
      "componentType": 5125,
      "count": 3396,
      "type": "SCALAR"
    }
  ],
  "asset": {
    "extras": {
      "author": "Henry VIII (https://sketchfab.com/henryviii)",
      "license": "CC-BY-4.0 (http://creativecommons.org/licenses/by/4.0/)",
      "source": "https://sketchfab.com/3d-models/bath-674b6c07743e4f569d4b745949d1a0f1",
      "title": "Bath"
    },
    "generator": "Sketchfab-12.68.0",
    "version": "2.0"
  },
  "bufferViews": [
    {
      "buffer": 0,
      "byteLength": 61752,
      "name": "floatBufferViews",
      "target": 34963
    },
    {
      "buffer": 0,
      "byteLength": 27184,
      "byteOffset": 61752,
      "byteStride": 8,
      "name": "floatBufferViews",
      "target": 34962
    },
    {
      "buffer": 0,
      "byteLength": 81552,
      "byteOffset": 88936,
      "byteStride": 12,
      "name": "floatBufferViews",
      "target": 34962
    },
    {
      "buffer": 0,
      "byteLength": 54368,
      "byteOffset": 170488,
      "byteStride": 16,
      "name": "floatBufferViews",
      "target": 34962
    }
  ],
  "buffers": [
    {
      "byteLength": 224856,
      "uri": "scene.bin"
    }
  ],
  "images": [
    {
      "uri": "textures/T_bath_baseColor.jpeg"
    },
    {
      "uri": "textures/T_bath_metallicRoughness.png"
    },
    {
      "uri": "textures/T_bath_normal.png"
    }
  ],
  "materials": [
    {
      "doubleSided": true,
      "name": "T_bath",
      "normalTexture": {
        "index": 2
      },
      "occlusionTexture": {
        "index": 1
      },
      "pbrMetallicRoughness": {
        "baseColorTexture": {
          "index": 0
        },
        "metallicRoughnessTexture": {
          "index": 1
        }
      }
    }
  ],
  "meshes": [
    {
      "name": "bath_finel_T_bath_0",
      "primitives": [
        {
          "attributes": {
            "NORMAL": 1,
            "POSITION": 0,
            "TANGENT": 2,
            "TEXCOORD_0": 3
          },
          "indices": 4,
          "material": 0,
          "mode": 4
        }
      ]
    },
    {
      "name": "Leg_T_bath_0",
      "primitives": [
        {
          "attributes": {
            "NORMAL": 6,
            "POSITION": 5,
            "TANGENT": 7,
            "TEXCOORD_0": 8
          },
          "indices": 9,
          "material": 0,
          "mode": 4
        }
      ]
    },
    {
      "name": "leg_1_T_bath_0",
      "primitives": [
        {
          "attributes": {
            "NORMAL": 11,
            "POSITION": 10,
            "TANGENT": 12,
            "TEXCOORD_0": 13
          },
          "indices": 14,
          "material": 0,
          "mode": 4
        }
      ]
    }
  ],
  "nodes": [
    {
      "children": [
        1
      ],
      "matrix": [
        -1.0,
        2.832769343193999e-16,
        6.290011496532519e-32,
        0.0,
        0.0,
        2.220446049250313e-16,
        -1.0,
        0.0,
        -2.832769343193999e-16,
        -1.0,
        -2.220446049250313e-16,
        0.0,
        0.07673012465238571,
        -65.19864654541016,
        -1.4477007713822355e-14,
        1.0
      ],
      "name": "Sketchfab_model"
    },
    {
      "children": [
        2
      ],
      "matrix": [
        1.0,
        0.0,
        0.0,
        0.0,
        0.0,
        -1.0,
        0.0,
        0.0,
        0.0,
        0.0,
        -1.0,
        0.0,
        0.0,
        0.0,
        0.0,
        1.0
      ],
      "name": "o_bath_final.FBX"
    },
    {
      "children": [
        3,
        6,
        8
      ],
      "name": "RootNode"
    },
    {
      "children": [
        4
      ],
      "matrix": [
        1.0,
        0.0,
        0.0,
        0.0,
        0.0,
        1.0,
        0.0,
        0.0,
        0.0,
        0.0,
        1.0,
        0.0,
        0.03844928741455078,
        5.312196731567383,
        33.15576934814453,
        1.0
      ],
      "name": "bath_finel"
    },
    {
      "children": [
        5
      ],
      "matrix": [
        1.0,
        0.0,
        -0.0,
        0.0,
        0.0,
        1.0,
        0.0,
        0.0,
        0.0,
        0.0,
        1.0,
        0.0,
        -7.115988731384277,
        18.885089874267578,
        -21.024507522583008,
        1.0
      ],
      "name": "Object_4"
    },
    {
      "mesh": 0,
      "name": "bath_finel_T_bath_0"
    },
    {
      "children": [
        7
      ],
      "matrix": [
        1.0,
        0.0,
        0.0,
        0.0,
        0.0,
        1.0,
        0.0,
        0.0,
        0.0,
        0.0,
        1.0,
        0.0,
        -16.505107879638672,
        -44.0051383972168,
        9.517547607421875,
        1.0
      ],
      "name": "Leg"
    },
    {
      "mesh": 1,
      "name": "Leg_T_bath_0"
    },
    {
      "children": [
        9
      ],
      "matrix": [
        1.0,
        0.0,
        0.0,
        0.0,
        0.0,
        1.0,
        0.0,
        0.0,
        0.0,
        0.0,
        1.0,
        0.0,
        -15.307981491088867,
        61.37021255493164,
        9.164965629577637,
        1.0
      ],
      "name": "leg_1"
    },
    {
      "mesh": 2,
      "name": "leg_1_T_bath_0"
    }
  ],
  "samplers": [
    {
      "magFilter": 9729,
      "minFilter": 9987,
      "wrapS": 10497,
      "wrapT": 10497
    }
  ],
  "scene": 0,
  "scenes": [
    {
      "name": "Sketchfab_Scene",
      "nodes": [
        0
      ]
    }
  ],
  "textures": [
    {
      "sampler": 0,
      "source": 0
    },
    {
      "sampler": 0,
      "source": 1
    },
    {
      "sampler": 0,
      "source": 2
    }
  ]
}
